  0
SECTION
  2
HEADER
  9
$ACADVER
  1
AC1006
  9
$EXTMIN
 10
0.000000
 20
0.000000
 30
0.000000
  9
$EXTMAX
 10
720.000000
 20
720.000000
 30
0.000000
  0
ENDSEC
  0
SECTION
  2
ENTITIES
  0
POLYLINE
  8
0
 66
1
 70
1
  0
VERTEX
  8
0
 10
332.184023
 20
718.971573
 42
0.023896
  0
VERTEX
  8
0
 10
297.799695
 20
714.618966
 42
0.024288
  0
VERTEX
  8
0
 10
264.177053
 20
707.020205
 42
0.024242
  0
VERTEX
  8
0
 10
231.388775
 20
696.179638
 42
0.023597
  0
VERTEX
  8
0
 10
199.500000
 20
682.130936
 42
0.053707
  0
VERTEX
  8
0
 10
135.061258
 20
640.876154
 42
0.052880
  0
VERTEX
  8
0
 10
80.513935
 20
586.650722
 42
0.053051
  0
VERTEX
  8
0
 10
38.702413
 20
522.370140
 42
0.054778
  0
VERTEX
  8
0
 10
11.890484
 20
451.406194
 42
0.002954
  0
VERTEX
  8
0
 10
8.966519
 20
439.755480
 42
0.009344
  0
VERTEX
  8
0
 10
7.200715
 20
431.906710
 42
0.009728
  0
VERTEX
  8
0
 10
5.766582
 20
424.164121
 42
0.003420
  0
VERTEX
  8
0
 10
4.000913
 20
413.000000
 42
0.018367
  0
VERTEX
  8
0
 10
1.531110
 20
391.292050
 42
0.013769
  0
VERTEX
  8
0
 10
0.352197
 20
367.261603
 42
0.013823
  0
VERTEX
  8
0
 10
0.499523
 20
343.346923
 42
0.019252
  0
VERTEX
  8
0
 10
2.045673
 20
322.000000
 42
0.050085
  0
VERTEX
  8
0
 10
17.615325
 20
249.269179
 42
0.051819
  0
VERTEX
  8
0
 10
47.230524
 20
181.964534
 42
0.051838
  0
VERTEX
  8
0
 10
90.040073
 20
122.208331
 42
0.050191
  0
VERTEX
  8
0
 10
144.651723
 20
71.813115
 42
0.044107
  0
VERTEX
  8
0
 10
197.739955
 20
38.764705
 42
0.043822
  0
VERTEX
  8
0
 10
255.914688
 20
15.456904
 42
0.043842
  0
VERTEX
  8
0
 10
317.235301
 20
2.652663
 42
0.044234
  0
VERTEX
  8
0
 10
379.664248
 20
0.790992
 42
0.037008
  0
VERTEX
  8
0
 10
436.267115
 20
8.339654
 42
0.040301
  0
VERTEX
  8
0
 10
489.490892
 20
24.055535
 42
0.040311
  0
VERTEX
  8
0
 10
539.492850
 20
48.101927
 42
0.037060
  0
VERTEX
  8
0
 10
586.499481
 20
80.463111
 42
0.072136
  0
VERTEX
  8
0
 10
655.687604
 20
154.766753
 42
0.071298
  0
VERTEX
  8
0
 10
701.248781
 20
245.948815
 42
0.071047
  0
VERTEX
  8
0
 10
719.470098
 20
346.554526
 42
0.070803
  0
VERTEX
  8
0
 10
708.838347
 20
448.363031
 42
0.046031
  0
VERTEX
  8
0
 10
687.454343
 20
509.314648
 42
0.045082
  0
VERTEX
  8
0
 10
655.160612
 20
565.779741
 42
0.044951
  0
VERTEX
  8
0
 10
613.166902
 20
615.690895
 42
0.045193
  0
VERTEX
  8
0
 10
563.000000
 20
657.194080
 42
0.030723
  0
VERTEX
  8
0
 10
525.068482
 20
679.901294
 42
0.031207
  0
VERTEX
  8
0
 10
484.833829
 20
697.656931
 42
0.030985
  0
VERTEX
  8
0
 10
442.424400
 20
710.370368
 42
0.029360
  0
VERTEX
  8
0
 10
398.000000
 20
718.023569
 42
0.019162
  0
VERTEX
  8
0
 10
385.374604
 20
718.954198
 42
0.005214
  0
VERTEX
  8
0
 10
365.369557
 20
719.451041
 42
0.005284
  0
VERTEX
  8
0
 10
345.289779
 20
719.528039
 42
0.017852
  0
SEQEND
  0
ENDSEC
  0
EOF
